{
  "accessors": [
    {
      "bufferView": 2,
      "componentType": 5126,
      "count": 16256,
      "max": [
        0.9999998807907104,
        1.0,
        0.9999997615814209
      ],
      "min": [
        -0.9999997019767761,
        -1.0,
        -1.0
      ],
      "type": "VEC3"
    },
    {
      "bufferView": 2,
      "byteOffset": 195072,
      "componentType": 5126,
      "count": 16256,
      "max": [
        0.9984953999519348,
        0.9996984004974365,
        0.9984953999519348
      ],
      "min": [
        -0.99849534034729,
        -0.9996983408927917,
        -0.9984954595565796
      ],
      "type": "VEC3"
    },
    {
      "bufferView": 3,
      "componentType": 5126,
      "count": 16256,
      "max": [
        1.0,
        1.0,
        1.0,
        1.0
      ],
      "min": [
        1.0,
        1.0,
        1.0,
        1.0
      ],
      "type": "VEC4"
    },
    {
      "bufferView": 1,
      "componentType": 5126,
      "count": 16256,
      "max": [
        1.0,
        1.0
      ],
      "min": [
        0.0,
        0.0
      ],
      "type": "VEC2"
    },
    {
      "bufferView": 0,
      "componentType": 5125,
      "count": 24192,
      "type": "SCALAR"
    },
    {
      "bufferView": 2,
      "byteOffset": 390144,
      "componentType": 5126,
      "count": 16256,
      "max": [
        0.9999998807907104,
        1.0,
        0.9999997615814209
      ],
      "min": [
        -0.9999997019767761,
        -1.0,
        -1.0
      ],
      "type": "VEC3"
    },
    {
      "bufferView": 2,
      "byteOffset": 585216,
      "componentType": 5126,
      "count": 16256,
      "max": [
        0.9984953999519348,
        0.9996984004974365,
        0.9984953999519348
      ],
      "min": [
        -0.99849534034729,
        -0.9996983408927917,
        -0.9984954595565796
      ],
      "type": "VEC3"
    },
    {
      "bufferView": 3,
      "byteOffset": 260096,
      "componentType": 5126,
      "count": 16256,
      "max": [
        1.0,
        1.0,
        1.0,
        1.0
      ],
      "min": [
        0.0,
        0.0,
        0.0,
        1.0
      ],
      "type": "VEC4"
    },
    {
      "bufferView": 1,
      "byteOffset": 130048,
      "componentType": 5126,
      "count": 16256,
      "max": [
        1.0,
        1.0
      ],
      "min": [
        0.0,
        0.0
      ],
      "type": "VEC2"
    },
    {
      "bufferView": 0,
      "byteOffset": 96768,
      "componentType": 5125,
      "count": 24192,
      "type": "SCALAR"
    },
    {
      "bufferView": 2,
      "byteOffset": 780288,
      "componentType": 5126,
      "count": 16256,
      "max": [
        0.9999998807907104,
        1.0,
        0.9999997615814209
      ],
      "min": [
        -0.9999997019767761,
        -1.0,
        -1.0
      ],
      "type": "VEC3"
    },
    {
      "bufferView": 2,
      "byteOffset": 975360,
      "componentType": 5126,
      "count": 16256,
      "max": [
        0.9984953999519348,
        0.9996984004974365,
        0.9984953999519348
      ],
      "min": [
        -0.99849534034729,
        -0.9996983408927917,
        -0.9984954595565796
      ],
      "type": "VEC3"
    },
    {
      "bufferView": 3,
      "byteOffset": 520192,
      "componentType": 5126,
      "count": 16256,
      "max": [
        1.0,
        1.0,
        1.0,
        1.0
      ],
      "min": [
        0.0,
        0.0,
        0.0,
        1.0
      ],
      "type": "VEC4"
    },
    {
      "bufferView": 1,
      "byteOffset": 260096,
      "componentType": 5126,
      "count": 16256,
      "max": [
        1.0,
        1.0
      ],
      "min": [
        0.0,
        0.0
      ],
      "type": "VEC2"
    },
    {
      "bufferView": 0,
      "byteOffset": 193536,
      "componentType": 5125,
      "count": 24192,
      "type": "SCALAR"
    }
  ],
  "asset": {
    "extras": {
      "author": "vitorotunnobianco (https://sketchfab.com/vitorotunnobianco)",
      "license": "CC-BY-4.0 (http://creativecommons.org/licenses/by/4.0/)",
      "source": "https://sketchfab.com/3d-models/cartoony-eye-5b1160cf9dc54c1ab4c6d1b53e40a85e",
      "title": "Cartoony Eye"
    },
    "generator": "Sketchfab-15.33.0",
    "version": "2.0"
  },
  "bufferViews": [
    {
      "buffer": 0,
      "byteLength": 290304,
      "name": "floatBufferViews",
      "target": 34963
    },
    {
      "buffer": 0,
      "byteLength": 390144,
      "byteOffset": 290304,
      "byteStride": 8,
      "name": "floatBufferViews",
      "target": 34962
    },
    {
      "buffer": 0,
      "byteLength": 1170432,
      "byteOffset": 680448,
      "byteStride": 12,
      "name": "floatBufferViews",
      "target": 34962
    },
    {
      "buffer": 0,
      "byteLength": 780288,
      "byteOffset": 1850880,
      "byteStride": 16,
      "name": "floatBufferViews",
      "target": 34962
    }
  ],
  "buffers": [
    {
      "byteLength": 2631168,
      "uri": "scene.bin"
    }
  ],
  "materials": [
    {
      "doubleSided": true,
      "name": "Scene_-_Root",
      "pbrMetallicRoughness": {
        "metallicFactor": 0.0,
        "roughnessFactor": 0.6
      }
    }
  ],
  "meshes": [
    {
      "name": "Object_0",
      "primitives": [
        {
          "attributes": {
            "COLOR_0": 2,
            "NORMAL": 1,
            "POSITION": 0,
            "TEXCOORD_0": 3
          },
          "indices": 4,
          "material": 0,
          "mode": 4
        }
      ]
    },
    {
      "name": "Object_1",
      "primitives": [
        {
          "attributes": {
            "COLOR_0": 7,
            "NORMAL": 6,
            "POSITION": 5,
            "TEXCOORD_0": 8
          },
          "indices": 9,
          "material": 0,
          "mode": 4
        }
      ]
    },
    {
      "name": "Object_2",
      "primitives": [
        {
          "attributes": {
            "COLOR_0": 12,
            "NORMAL": 11,
            "POSITION": 10,
            "TEXCOORD_0": 13
          },
          "indices": 14,
          "material": 0,
          "mode": 4
        }
      ]
    }
  ],
  "nodes": [
    {
      "children": [
        1
      ],
      "matrix": [
        1.0,
        0.0,
        0.0,
        0.0,
        0.0,
        2.220446049250313e-16,
        -1.0,
        0.0,
        0.0,
        1.0,
        2.220446049250313e-16,
        0.0,
        0.0,
        0.0,
        0.0,
        1.0
      ],
      "name": "Sketchfab_model"
    },
    {
      "children": [
        2
      ],
      "name": "root"
    },
    {
      "children": [
        3,
        5,
        7
      ],
      "matrix": [
        1.0,
        0.0,
        0.0,
        0.0,
        0.0,
        2.220446049250313e-16,
        1.0,
        0.0,
        0.0,
        -1.0,
        2.220446049250313e-16,
        0.0,
        0.0,
        0.0,
        0.0,
        1.0
      ],
      "name": "GLTF_SceneRootNode"
    },
    {
      "children": [
        4
      ],
      "matrix": [
        0.16145406663417816,
        0.0,
        0.0,
        0.0,
        0.0,
        1.0,
        0.0,
        0.0,
        0.0,
        0.0,
        0.6718536019325256,
        0.0,
        0.0,
        0.0,
        0.0,
        1.0
      ],
      "name": "Esfera_2"
    },
    {
      "mesh": 0,
      "name": "Object_4"
    },
    {
      "children": [
        6
      ],
      "matrix": [
        0.08367898315191269,
        0.0,
        0.0,
        0.0,
        0.0,
        0.630538284778595,
        0.0,
        0.0,
        0.0,
        0.0,
        0.3585489094257355,
        0.0,
        0.11687536537647247,
        0.0,
        0.0,
        1.0
      ],
      "name": "Esfera.001_3"
    },
    {
      "mesh": 1,
      "name": "Object_6"
    },
    {
      "children": [
        8
      ],
      "matrix": [
        0.08367898315191269,
        0.0,
        0.0,
        0.0,
        0.0,
        0.36073133295040877,
        0.7632512747671302,
        0.0,
        0.0,
        -0.19948685307253206,
        0.0942823953184911,
        0.0,
        0.05488274246454239,
        0.9123975038528442,
        -0.06590228527784348,
        1.0
      ],
      "name": "Esfera.002_4"
    },
    {
      "mesh": 2,
      "name": "Object_8"
    }
  ],
  "scene": 0,
  "scenes": [
    {
      "name": "Sketchfab_Scene",
      "nodes": [
        0
      ]
    }
  ]
}
